<svg width="320.000000" height="319.890625" viewBox="0 0 320 319.891" fill="none" xmlns="http://www.w3.org/2000/svg" xmlns:xlink="http://www.w3.org/1999/xlink">
	<desc>
			Created with Pixso.
	</desc>
	<defs>
		<clipPath id="clip52_5183">
			<rect id="white" width="320.000000" height="319.891327" fill="white" fill-opacity="0"/>
		</clipPath>
	</defs>
	<g opacity="0.220000">
		<rect id="white" width="320.000000" height="319.891327" fill="#FFFFFF" fill-opacity="1.000000"/>
		<g clip-path="url(#clip52_5183)">
			<path id="path" d="M244.44 0C243.02 2.73 241.72 5.53 240.15 8.17C239.07 9.97 237.46 9.98 235.7 8.82C231.69 6.15 231.65 6.17 230.15 10.9C229.85 11.89 229.22 12.6 228.71 13.43C227.64 15.15 226.29 15.16 224.75 14.17C224.28 13.84 223.85 13.47 223.44 13.07C220.72 10.62 219.95 10.82 218.26 14.19C217.66 15.38 217.28 17.67 215.41 16.71C213.54 15.74 215.04 13.99 215.71 12.67C216.06 12.03 216.48 11.42 216.95 10.86C219.54 7.68 221.15 7.53 224.34 10.17C226.71 12.15 226.7 12.15 227.69 9.18C227.93 8.49 228.19 7.8 228.46 7.11C230.15 2.9 232.21 2.26 235.7 5.14C237.35 6.5 238.17 6.58 238.95 4.42C239.48 2.89 240.3 1.46 240.98 -0.02L244.44 0Z" fill="#171717" fill-opacity="1.000000" fill-rule="nonzero"/>
			<path id="path" d="M304.69 319.89C304.78 318.19 304.43 316.43 305.28 314.82C306.69 312.18 309.6 310.84 312.8 311.43C313.48 311.57 314.13 311.82 314.74 312.17C315.35 312.51 315.89 312.95 316.36 313.47C316.83 313.98 317.21 314.56 317.5 315.2C317.79 315.84 317.98 316.5 318.06 317.2C318.11 318.1 318.1 318.99 318.02 319.89L304.69 319.89Z" fill="#171717" fill-opacity="1.000000" fill-rule="nonzero"/>
			<path id="path" d="M129.91 310.59C123.79 311.35 117.71 312.34 111.67 313.55C109.92 313.91 109.84 314.69 110.44 316.14C111 317.5 112.45 318.3 112.6 319.86L116.06 319.86C115.88 318.32 114.35 317.52 113.91 315.88L128.11 313.58C127.29 315.93 126.62 317.9 125.94 319.86L128.9 319.86C129.78 317.39 130.71 314.99 131.55 312.53C132.04 311.1 131.62 310.37 129.91 310.59Z" fill="#171717" fill-opacity="1.000000" fill-rule="nonzero"/>
			<path id="path" d="M11.22 86.99C8.6 81.91 5.8 76.92 2.82 72.04C2.55 71.53 2.16 71.13 1.64 70.87C1.12 70.6 0.57 70.5 0 70.59L0 75.03C1.01 74.38 1.52 75.1 1.93 75.82C3.82 79.18 5.67 82.57 7.54 85.94C8.12 86.98 7.87 87.42 6.65 87.39C4.43 87.34 2.2 87.39 0 87.39L0 90.35C3.16 89.86 6.35 90.76 9.52 90.17C12.09 89.67 12.39 89.27 11.22 86.99Z" fill="#171717" fill-opacity="1.000000" fill-rule="nonzero"/>
			<path id="path" d="M317.53 0C317.36 2.75 315.75 4.34 313.23 4.99C310.37 5.72 307.86 5.05 305.99 2.62C305.35 1.84 304.92 0.97 304.69 0L317.53 0Z" fill="#171717" fill-opacity="1.000000" fill-rule="nonzero"/>
			<path id="path" d="M125.43 0C125.03 2.86 123.41 5.27 122.3 8.45C120.43 5.27 117.93 3.02 116.54 0L113.08 0C115.37 4.06 118.38 7.61 121.12 11.36C121.8 12.29 122.9 13.18 123.79 11.5C125.77 7.84 127.31 4.01 128.39 0L125.43 0Z" fill="#171717" fill-opacity="1.000000" fill-rule="nonzero"/>
			<path id="path" d="M320 76.02L320 71.08C319.85 71.08 319.62 71 319.59 71.06C316.39 76.49 313.2 81.92 310.48 87.59C309.53 89.57 310.86 90.18 312.38 90.27C314.91 90.42 317.46 90.33 320 90.33L320 87.37C318.45 87.37 316.9 87.34 315.36 87.37C314.27 87.37 313.81 87.09 314.44 85.97C316.3 82.66 318.12 79.33 320 76.02Z" fill="#171717" fill-opacity="1.000000" fill-rule="nonzero"/>
			<path id="path" d="M278.51 0C274.71 2.47 270.77 1.67 266.81 0.51C266.47 0.41 266.56 0.21 266.66 0.02L278.51 0Z" fill="#171717" fill-opacity="1.000000" fill-rule="nonzero"/>
			<path id="path" d="M241.97 319.89C242.34 318.38 243.53 317.8 244.85 317.81C246.18 317.81 245.8 319.06 245.92 319.89L241.97 319.89Z" fill="#171717" fill-opacity="1.000000" fill-rule="nonzero"/>
			<path id="path" d="M34.98 119.32C34.69 117.01 34.38 114.71 34.12 112.4C34.07 111.66 34.07 110.92 34.12 110.18C34.08 109.71 34.21 109.28 34.52 108.92C34.83 108.55 35.23 108.35 35.71 108.32C36.69 108.19 37.19 108.81 37.51 109.65C38.43 112.32 38.35 115.15 38.78 117.9C38.87 118.45 38.88 119.03 38.94 119.87C40.78 118.49 40.92 116.41 41.95 114.85C42.8 113.56 43.43 112.13 44.24 110.8C44.48 110.34 44.86 110.02 45.36 109.87C45.86 109.71 46.34 109.76 46.81 110C48.04 110.53 47.54 111.61 47.24 112.35C45.99 115.38 44.76 118.41 42.91 121.16C42.52 121.56 42.46 122.02 42.74 122.51C44.79 121.3 46.78 120.13 48.77 118.97C49.69 118.44 50.61 117.91 51.56 117.46C52.62 116.96 53.81 116.44 54.56 117.85C55.21 119.09 54.29 119.91 53.38 120.47C48.94 123.23 44.56 126.15 39.78 128.38C38.51 128.97 37.49 129.02 36.49 127.88C33.07 124.02 29.85 120 26.83 115.81C26.2 114.91 25.78 114.03 26.71 113.22C27.64 112.41 28.75 112.72 29.54 113.63C31.23 115.56 32.87 117.58 34.54 119.53L34.98 119.32Z" fill="#797979" fill-opacity="1.000000" fill-rule="nonzero"/>
			<path id="path" d="M219.2 206.53L223.15 198.78C223.27 198.48 223.41 198.18 223.57 197.9C224.3 196.8 224.75 194.97 226.57 195.81C228.55 196.73 227.22 198.28 226.7 199.37C224.34 204.31 221.79 209.14 219.44 214.08C218.72 215.59 217.73 215.75 216.47 215.24C214.57 214.5 212.71 213.64 210.91 212.68C208.05 211.08 205.21 209.46 202.24 208.06C200.93 207.44 199.11 206.66 200.17 204.88C200.89 203.66 202.5 204.33 203.69 204.97C206.16 206.27 208.63 207.54 211.1 208.81C211.43 208.98 211.76 209.34 212.34 208.9C211.23 206.05 209.54 203.47 208.02 200.81C207.65 200.17 207.3 199.52 206.95 198.87C206.42 197.88 206.5 196.89 207.52 196.31C208.55 195.72 209.41 196.21 209.95 197.2C211.64 200.28 213.31 203.36 215.28 206.97C215.28 203.64 215.28 200.87 215.28 198.08C215.28 197.34 215.35 196.6 215.34 195.86C215.34 194.71 215.98 194.2 217.01 194.19C218.05 194.18 218.65 194.73 218.65 195.88C218.65 199.37 218.65 202.87 218.65 206.36L219.2 206.53Z" fill="#797979" fill-opacity="1.000000" fill-rule="nonzero"/>
			<path id="path" d="M300.75 16.75C300.87 22.37 298.33 24.57 293.15 23.41C291.33 23.01 291.1 23.76 291.44 25.19C291.61 25.91 291.94 26.59 292.14 27.29C293.13 30.41 291.22 32.67 287.94 32.31C287.86 32.31 287.78 32.27 287.7 32.26C286.08 32.14 284.28 30.73 282.96 31.77C281.64 32.81 283.07 34.66 283.1 36.16C283.13 36.63 283.05 37.09 282.87 37.53C282.69 37.97 282.43 38.35 282.08 38.68C281.73 39 281.33 39.24 280.88 39.38C280.42 39.53 279.96 39.57 279.49 39.51C278.36 39.3 277.25 39 276.16 38.63C275.64 38.44 275.11 38.41 274.58 38.55C274.04 38.69 273.6 38.97 273.24 39.4C272.47 40.28 272.79 41.24 273.19 42.17C273.59 43.1 274.02 43.95 274.35 44.88C274.49 45.2 274.5 45.52 274.38 45.84C274.26 46.17 274.05 46.41 273.74 46.57C273.07 46.95 272.64 46.43 272.22 46.12C270.2 44.64 269.52 40.73 270.8 38.18C271.97 35.86 273.82 35.15 276.82 35.9C277.37 36.04 277.93 36.18 278.49 36.33C279.86 36.7 280.32 36.15 280.04 34.81C279.94 34.32 279.91 33.82 279.83 33.33C279.31 29.87 281.49 27.87 284.98 28.65C289.39 29.64 289.39 29.64 288.52 25.24C287.9 22.07 289.45 20.3 292.68 20.56C293.09 20.59 293.5 20.65 293.9 20.7C297.45 21.11 298.29 20.29 298.24 16.75C298.24 15.35 297.65 14.62 296.34 14.31C295.03 14 293.62 13.68 292.28 13.28C291.66 13.09 291 12.71 291.19 11.89C291.25 11.59 291.39 11.34 291.63 11.15C291.86 10.96 292.13 10.86 292.44 10.86C295.14 11.01 297.87 11.13 299.96 13.29C301 14.4 300.83 15.69 300.75 16.75Z" fill="#171717" fill-opacity="1.000000" fill-rule="nonzero"/>
			<path id="path" d="M51.63 290.54C51.63 291.21 51.63 291.91 50.88 292.23C50.03 292.61 49.46 292.11 49.02 291.47C48.64 290.93 48.34 290.35 48.03 289.79C47.57 289.02 47.17 288.03 46.09 288.18C45.1 288.32 44.69 289.25 44.35 290.1C44.17 290.56 44.05 291.04 43.86 291.49C42.3 295.44 39.76 296.08 36.49 293.26C33.6 290.79 33.34 290.83 31.84 294.44C30.33 298.05 27.39 298.82 24.43 296.26C21.88 294.04 21.19 294.23 20.15 297.45C19.44 299.65 18.18 301.28 15.71 301.4C13.62 301.49 11.04 299.43 10.43 297.21C10.25 296.53 9.98 295.68 10.86 295.24C11.21 295.07 11.57 295.02 11.95 295.11C12.33 295.2 12.63 295.4 12.87 295.7C13.15 296.01 13.32 296.41 13.61 296.69C14.27 297.3 14.06 298.82 15.51 298.59C16.87 298.36 17.23 297.18 17.65 296.12C19.63 291.01 21.22 290.56 25.75 293.82C28.05 295.48 28.49 295.36 29.65 292.71C29.97 291.87 30.37 291.07 30.83 290.29C32.41 287.93 34.5 287.71 36.65 289.6C40.21 292.73 40.21 292.73 41.96 288.42C42.88 286.13 44.87 284.9 46.94 285.32C49.02 285.74 51.54 288.6 51.63 290.54Z" fill="#171717" fill-opacity="1.000000" fill-rule="nonzero"/>
			<path id="path" d="M69.68 91.75C70.7 91.79 70.99 92.57 71.33 93.33C71.87 94.53 72.37 96 74.03 95.71C75.51 95.45 75.46 93.89 75.81 92.75C76 92.13 76.03 91.45 76.25 90.83C77.07 88.6 79.14 87.82 81.24 88.95C81.8 89.3 82.32 89.69 82.81 90.13C85.34 92.1 85.78 91.99 86.81 88.96C88.53 83.89 91.09 83.35 94.92 87.25C96.9 89.28 97.36 89.19 98.26 86.5C98.98 84.35 100.08 82.55 102.57 82.36C104.82 82.18 106.22 83.59 107.26 85.39C107.72 86.17 108.18 87.12 107.26 87.81C106.42 88.41 105.73 87.71 105.13 87.13C102.3 84.46 102.11 84.5 100.75 88.2C99.3 92.15 96.48 92.68 93.47 89.58C90.81 86.84 90.28 86.98 89.09 90.66C87.64 95.14 85.68 95.74 81.87 92.85C79.09 90.75 78.87 90.83 78.12 94.29C77.42 97.53 76.14 98.61 73.34 98.39C70.87 98.2 68.36 95.81 68.14 93.48C68.02 92.4 68.66 91.69 69.68 91.75Z" fill="#171717" fill-opacity="1.000000" fill-rule="nonzero"/>
			<path id="path" d="M200.87 118.95C200.37 116.48 199.98 114.16 199.47 111.87C199.13 110.31 198.58 108.42 200.62 108.01C202.29 107.66 202.64 109.53 202.96 110.88C203.55 113.38 204.11 115.89 204.85 119.12C205.7 116.59 206.33 114.67 206.98 112.83C207.22 112.13 207.55 111.47 207.96 110.85C208.19 110.48 208.52 110.24 208.93 110.12C209.35 110 209.75 110.04 210.14 110.23C211.05 110.61 210.92 111.47 210.72 112.14C209.58 116.07 208.61 120.05 206.9 123.78C205.55 126.71 203.47 127.24 201.04 125.17C197.41 121.97 194.13 118.45 191.2 114.6C190.55 113.77 190.13 112.62 190.87 111.91C191.78 111.01 192.84 111.68 193.64 112.5C195.34 114.25 197.03 116.02 198.7 117.81C199.21 118.34 199.65 118.93 200.87 118.95Z" fill="#797979" fill-opacity="1.000000" fill-rule="nonzero"/>
			<path id="path" d="M75.92 210.51C76.01 215.48 71.37 218.11 67.29 215.88C64.87 214.56 63.11 212.46 61.3 210.45C57.35 206.03 55.34 206 51.2 210.18C50.31 211.08 49.38 213.1 47.92 211.79C46.35 210.37 48.05 208.96 49.04 207.84C53.81 202.59 59.13 202.74 63.7 208.2C65.01 209.78 66.23 211.45 67.99 212.58C69.15 213.32 70.43 213.79 71.68 212.9C72.93 212.02 72.81 210.56 72.39 209.3C71.3 206 68.93 203.58 66.57 201.16C65.62 200.17 63.67 199.19 65.14 197.61C66.6 196.03 67.79 197.85 68.77 198.77C71.48 201.31 73.95 204.07 75.19 207.66C75.58 208.77 75.77 209.9 75.92 210.51Z" fill="#797979" fill-opacity="1.000000" fill-rule="nonzero"/>
			<path id="path" d="M137.09 34.37C137.08 33.41 137.24 32.5 137.6 31.61C137.94 30.73 138.45 29.94 139.11 29.26C139.77 28.57 140.54 28.04 141.41 27.66C142.29 27.28 143.2 27.08 144.15 27.07C144.62 27.05 145.09 27.08 145.56 27.16C146.02 27.24 146.48 27.37 146.92 27.54C147.36 27.72 147.77 27.93 148.17 28.19C148.56 28.46 148.92 28.75 149.26 29.09C149.59 29.43 149.88 29.8 150.14 30.19C150.39 30.59 150.6 31.01 150.77 31.46C150.94 31.9 151.06 32.35 151.13 32.82C151.21 33.29 151.23 33.76 151.2 34.23C151.2 35.18 151.01 36.1 150.64 36.98C150.27 37.86 149.75 38.64 149.08 39.31C148.4 39.99 147.63 40.51 146.75 40.88C145.87 41.25 144.96 41.44 144 41.46C143.07 41.46 142.17 41.28 141.31 40.92C140.45 40.56 139.69 40.05 139.04 39.38C138.39 38.71 137.89 37.94 137.56 37.07C137.22 36.2 137.06 35.3 137.09 34.37Z" fill="#171717" fill-opacity="1.000000" fill-rule="nonzero"/>
			<path id="path" d="M267.28 164.99C266.37 165 265.49 164.85 264.64 164.51C263.79 164.18 263.03 163.7 262.37 163.06C261.72 162.43 261.2 161.7 260.83 160.86C260.47 160.03 260.27 159.15 260.25 158.24C260.2 154.38 263.58 151.07 267.54 151.09C268.47 151.07 269.37 151.23 270.24 151.59C271.11 151.94 271.87 152.45 272.52 153.11C273.18 153.78 273.67 154.55 274.01 155.42C274.35 156.3 274.49 157.2 274.46 158.14C274.42 162.02 271.33 164.99 267.28 164.99Z" fill="#171717" fill-opacity="1.000000" fill-rule="nonzero"/>
			<path id="path" d="M135.84 129.61C136.02 127.8 136.66 126.1 138.68 125.29C140.59 124.52 142.14 125.04 143.62 126.45C146.92 129.65 146.95 129.62 148.68 125.35C149.91 122.32 152.27 121.65 154.98 123.57C155.51 123.95 156.02 124.37 156.53 124.8C157.74 125.81 158.59 125.6 159.08 124.08C159.26 123.53 159.43 122.98 159.64 122.45C160.74 119.67 162.66 118.49 165.37 118.89C167.44 119.2 169.55 121.58 169.81 123.93C169.9 124.76 169.9 125.63 168.88 125.94C167.96 126.22 167.54 125.54 167.15 124.9C166.98 124.62 166.89 124.3 166.74 124.01C166.21 123.02 166.03 121.61 164.62 121.54C163.1 121.49 162.7 122.87 162.15 123.96C161.82 124.62 161.58 125.33 161.26 125.99C159.92 128.81 158.13 129.3 155.54 127.57C155.4 127.48 155.3 127.36 155.16 127.26C151.89 124.99 151.89 124.99 150.51 128.78C149.28 132.17 146.95 132.89 144.05 130.76C143.65 130.47 143.27 130.15 142.91 129.82C139.99 127.06 139.9 127.09 138.7 130.68C138.46 131.42 138.12 132.09 137.22 132.07C136.32 132.04 135.84 131.13 135.84 129.61Z" fill="#171717" fill-opacity="1.000000" fill-rule="nonzero"/>
			<path id="path" d="M17.11 20.12C17.11 21.02 16.93 21.88 16.58 22.7C16.22 23.52 15.72 24.24 15.07 24.86C14.42 25.48 13.68 25.94 12.84 26.26C12 26.57 11.14 26.71 10.24 26.67C9.32 26.66 8.44 26.48 7.6 26.12C6.75 25.76 6.01 25.25 5.37 24.6C4.73 23.94 4.24 23.19 3.9 22.34C3.56 21.49 3.4 20.6 3.41 19.68C3.46 15.66 6.58 12.61 10.48 12.77C14.39 12.93 17.23 16.03 17.11 20.12Z" fill="#171717" fill-opacity="1.000000" fill-rule="nonzero"/>
			<path id="path" d="M175.2 217.25C173.6 216.9 172.12 216.76 170.75 216.26C168.47 215.43 168.04 213.93 169.3 211.82C169.56 211.4 169.84 210.99 170.14 210.61C172.61 207.41 172.61 207.41 169.06 205.77C168.38 205.46 167.58 205.13 167.87 204.19C167.93 203.99 168.02 203.8 168.15 203.64C168.28 203.47 168.44 203.34 168.63 203.24C168.82 203.15 169.02 203.09 169.23 203.08C169.45 203.07 169.65 203.1 169.85 203.18C170.97 203.4 172.08 203.71 173.15 204.11C175.55 205.19 176.12 207.07 174.75 209.35C173.91 210.72 172.87 211.98 171.77 213.51C173.37 213.84 174.8 214 176.16 214.43C178.63 215.18 179.19 216.76 177.94 218.93C177.86 219.06 177.77 219.2 177.68 219.34C175.74 222.45 175.8 222.52 179.32 223.29C180.92 223.64 183.12 223.42 183.33 225.76C183.46 227.09 183.31 228.39 182.9 229.65C182.48 230.92 181.83 232.05 180.95 233.05C180.16 233.95 179.25 233.35 179.01 232.24C178.91 231.8 179.15 231.28 179.19 230.8C179.33 229.37 181.04 228.11 180.1 226.71C179.31 225.54 177.55 226.04 176.27 225.61C173.3 224.62 172.45 222.77 173.8 219.9C174.21 219.03 174.7 218.19 175.2 217.25Z" fill="#171717" fill-opacity="1.000000" fill-rule="nonzero"/>
			<path id="path" d="M274.31 109.99C276.16 110.05 277.47 111.27 278.92 112.18C282.1 114.15 282.96 113.77 283.56 110.14C283.77 108.86 283.88 107.55 284.51 106.35C286.12 103.28 289.69 102.45 292.39 104.58C293.42 105.39 294.37 106.31 295.44 107.05C297.21 108.31 298.67 107.92 299.68 106.02C300.38 104.72 300.99 103.37 301.71 102.06C301.83 101.82 302 101.6 302.21 101.43C302.42 101.25 302.65 101.13 302.92 101.05C303.18 100.98 303.45 100.96 303.72 101C303.99 101.05 304.24 101.14 304.47 101.29C305.33 101.9 304.52 102.82 304.01 103.59C303.2 104.79 302.49 106.05 301.88 107.36C300.46 110.45 297.77 111.47 294.86 109.83C293.83 109.15 292.84 108.42 291.89 107.63C290.84 106.86 289.83 105.96 288.34 106.5C286.67 107.11 286.73 108.62 286.5 109.96C286.36 110.77 286.38 111.61 286.2 112.4C285.39 115.92 281.8 117.42 278.76 115.44C276.87 114.21 275.39 112.27 272.69 112.8C272.07 112.92 271.5 112.16 271.73 111.39C272.11 110.15 273.17 109.99 274.31 109.99Z" fill="#171717" fill-opacity="1.000000" fill-rule="nonzero"/>
			<path id="path" d="M205.33 298.75C205.1 301.9 205.27 304.36 208.39 305.45C209.11 305.7 209.96 306.34 209.51 307.33C209.06 308.32 208.22 308.4 207.2 308.2C204.64 307.71 202.72 305.43 202.49 302.3C202.37 300.67 202.49 299.01 202.37 297.36C202.2 295 201.24 294.4 199.14 295.38C197.59 296.12 196.18 297.19 194.66 297.95C192.59 298.97 190.33 299.38 188.34 297.95C186.34 296.51 186.07 294.29 186.48 291.95C186.77 290.3 187.47 288.53 185.36 287.4C185.09 287.26 184.92 287.04 184.85 286.74C184.77 286.45 184.81 286.18 184.98 285.92C185.16 285.58 185.42 285.33 185.76 285.16C186.1 284.99 186.46 284.93 186.84 284.99C188.6 285.1 189.94 286.77 189.97 289.08C189.97 290.47 189.68 291.86 189.65 293.25C189.6 295.59 190.49 296.24 192.69 295.35C194.11 294.71 195.49 293.97 196.81 293.15C197.66 292.63 198.57 292.26 199.53 292.02C202.81 291.29 204.61 292.46 205.1 295.76C205.27 296.91 205.28 298.07 205.33 298.75Z" fill="#797979" fill-opacity="1.000000" fill-rule="nonzero"/>
			<path id="path" d="M173.75 250.76C173.79 252.08 173.61 253.36 173.19 254.62C172.95 255.33 172.5 256.1 171.64 255.94C170.68 255.78 170.41 254.89 170.45 254.04C170.52 252.49 170.83 250.94 170.81 249.39C170.77 246.78 169.77 245.83 167.17 245.91C165.37 245.97 163.58 246.33 161.78 246.41C158.94 246.5 157.75 245.35 157.56 242.5C157.46 241.12 157.79 239.71 157.25 238.36C156.26 235.95 154.55 235.49 152.41 237.01C151.59 237.6 150.74 239.22 149.61 237.76C148.68 236.54 149.83 235.44 150.74 234.63C151.54 233.88 152.48 233.41 153.57 233.22C154.66 233.02 155.7 233.15 156.72 233.58C159.25 234.55 160.17 236.75 160.48 239.2C161.06 243.75 161.02 243.76 165.61 243.34C171.61 242.77 173.74 244.65 173.75 250.76Z" fill="#171717" fill-opacity="1.000000" fill-rule="nonzero"/>
			<path id="path" d="M223.28 21.28C224.89 21.46 226.24 22.16 227.32 23.38C228.63 24.79 229.11 24.15 229.51 22.74C229.7 22.11 229.92 21.49 230.19 20.89C231.82 17.09 234.14 16.2 237.79 18.21C238.86 18.8 239.39 18.43 240.09 17.8C240.58 17.34 241.25 17.02 241.86 17.54C242.47 18.06 242.3 18.71 242.09 19.37C241.97 19.81 241.77 20.2 241.48 20.55C241.19 20.89 240.84 21.16 240.42 21.35C240.01 21.54 239.58 21.64 239.13 21.64C238.68 21.64 238.25 21.54 237.84 21.35C237.45 21.22 237.07 21.05 236.71 20.86C234.59 19.55 233.4 20.36 232.61 22.5C232.14 23.82 231.53 25.06 230.77 26.24C229.68 27.91 228.33 28.17 226.68 26.74C222.86 23.41 222.1 23.65 220.29 28.49C220.15 28.87 220.01 29.26 219.83 29.62C219.38 30.54 218.79 31.57 217.63 31.07C216.47 30.57 216.87 29.41 217.22 28.48C217.88 26.41 218.92 24.55 220.31 22.89C221.1 21.98 222.09 21.44 223.28 21.28Z" fill="#171717" fill-opacity="1.000000" fill-rule="nonzero"/>
			<path id="path" d="M26.24 200.45C26.24 201.21 26.1 201.94 25.81 202.63C25.53 203.33 25.12 203.95 24.58 204.48C24.04 205.01 23.43 205.42 22.73 205.7C22.03 205.98 21.3 206.11 20.54 206.1C19.79 206.09 19.07 205.93 18.37 205.63C17.68 205.32 17.08 204.9 16.56 204.35C16.04 203.8 15.65 203.17 15.39 202.46C15.12 201.76 15.01 201.03 15.04 200.27C15.03 199.52 15.17 198.79 15.46 198.09C15.75 197.39 16.16 196.78 16.69 196.25C17.23 195.72 17.85 195.31 18.55 195.03C19.25 194.75 19.98 194.61 20.73 194.62C21.48 194.64 22.21 194.79 22.9 195.1C23.59 195.4 24.19 195.83 24.71 196.38C25.23 196.93 25.62 197.56 25.89 198.26C26.15 198.97 26.27 199.7 26.24 200.45Z" fill="#171717" fill-opacity="1.000000" fill-rule="nonzero"/>
			<path id="path" d="M105.24 181.17C103.27 181.29 101.37 181.13 100.27 179.24C98.97 176.99 99.01 174.53 99.73 172.09C99.8 171.75 99.99 171.48 100.29 171.3C100.59 171.12 100.91 171.07 101.25 171.17C101.55 171.21 101.8 171.34 101.99 171.57C102.19 171.8 102.29 172.07 102.28 172.37C102.32 173.35 102.28 174.34 102.28 175.33C102.28 177.75 103.23 178.6 105.61 178.4C111.22 177.94 113.07 180.03 111.86 185.45C111.15 188.61 111.51 189.07 114.71 189.07C115.2 189.07 115.7 189.05 116.19 189.07C117.02 189.13 117.61 189.47 117.61 190.41C117.64 190.76 117.55 191.07 117.32 191.34C117.09 191.6 116.8 191.75 116.45 191.77C114.14 192.07 111.78 192.19 109.85 190.65C108.12 189.25 108.51 187.29 108.91 185.4C109.76 181.44 109.31 180.91 105.24 181.17Z" fill="#171717" fill-opacity="1.000000" fill-rule="nonzero"/>
			<path id="path" d="M296.06 145.39C295.99 146.38 296.03 147.08 295.1 147.15C294.72 147.19 294.36 147.11 294.04 146.9C293.72 146.68 293.51 146.39 293.4 146.02C292.74 144.35 292.16 142.62 291.06 141.17C286.7 135.42 280.82 133.26 273.77 133.86C272.38 133.99 270.28 134.88 270.02 132.96C269.76 131.03 272.04 131.28 273.41 131.07C282.12 129.71 291.44 134.68 295.14 142.65C295.5 143.55 295.81 144.46 296.06 145.39Z" fill="#171717" fill-opacity="1.000000" fill-rule="nonzero"/>
			<path id="path" d="M85.04 120.67C81.91 120.67 79.72 118.52 79.71 115.47C79.7 114.74 79.83 114.04 80.09 113.37C80.36 112.69 80.74 112.09 81.24 111.56C81.75 111.04 82.33 110.63 82.99 110.34C83.66 110.04 84.35 109.88 85.08 109.86C85.8 109.84 86.51 109.96 87.19 110.22C87.87 110.48 88.47 110.85 89 111.35C89.53 111.85 89.95 112.42 90.25 113.08C90.55 113.75 90.72 114.44 90.75 115.16C90.78 118.25 88.27 120.67 85.04 120.67Z" fill="#171717" fill-opacity="1.000000" fill-rule="nonzero"/>
			<path id="path" d="M140.32 86.06C140.09 86.59 139.82 87.11 139.53 87.61C137.43 90.85 135.16 93.97 132.73 96.96C132.15 97.68 131.61 98.5 130.53 97.77C129.45 97.04 129.77 96.05 130.36 95.2C132.05 92.78 133.71 90.33 135.57 88.04C136.93 86.37 137.13 85.13 135.48 83.49C133.39 81.41 131.56 79.08 129.65 76.82C128.91 75.95 127.97 74.97 129.16 73.86C130.35 72.75 131.31 73.81 132.01 74.65C134.54 77.67 136.99 80.76 139.42 83.84C139.99 84.47 140.29 85.21 140.32 86.06Z" fill="#797979" fill-opacity="1.000000" fill-rule="nonzero"/>
			<path id="path" d="M268.89 217.92C268.87 218.6 268.72 219.26 268.44 219.89C268.17 220.52 267.78 221.07 267.29 221.55C266.8 222.03 266.24 222.4 265.61 222.66C264.97 222.92 264.31 223.05 263.63 223.06C262.9 223.04 262.21 222.88 261.54 222.59C260.88 222.3 260.3 221.89 259.79 221.36C259.29 220.84 258.91 220.24 258.64 219.56C258.38 218.89 258.25 218.18 258.26 217.46C258.28 216.77 258.43 216.12 258.71 215.49C258.99 214.87 259.38 214.32 259.89 213.85C260.39 213.39 260.96 213.04 261.61 212.81C262.26 212.58 262.92 212.48 263.61 212.52C264.31 212.53 264.99 212.68 265.64 212.96C266.29 213.24 266.86 213.63 267.35 214.14C267.85 214.64 268.23 215.22 268.5 215.88C268.76 216.53 268.89 217.21 268.89 217.92Z" fill="#171717" fill-opacity="1.000000" fill-rule="nonzero"/>
			<path id="path" d="M241.36 155.41C240.4 155.44 239.83 155.15 239.61 154.42C239.49 154.04 239.52 153.68 239.71 153.33C239.9 152.98 240.18 152.75 240.57 152.64C245.93 151.37 246.25 146.9 247.02 142.71C247.63 139.46 248.83 136.59 251.76 134.7C252.58 134.18 253.24 134.07 253.92 134.84C254.61 135.6 254.16 136.35 253.59 136.77C250.1 139.43 249.64 143.38 248.9 147.26C248.24 150.66 246.58 153.38 243.25 154.8C242.64 155.04 242 155.24 241.36 155.41Z" fill="#171717" fill-opacity="1.000000" fill-rule="nonzero"/>
			<path id="path" d="M199.36 133.23C198.61 133.32 198.06 133.03 197.71 132.37C197.32 131.56 197.71 130.99 198.36 130.47C200.71 128.54 203.73 128.19 206.44 127.13C208.63 126.26 210.98 125.81 213.28 125.26C213.7 125.1 214.11 125.13 214.5 125.33C214.89 125.54 215.15 125.85 215.26 126.28C215.6 127.27 215.04 127.73 214.18 128.12C209.55 130.21 204.65 131.58 199.86 133.19C199.69 133.22 199.53 133.24 199.36 133.23Z" fill="#797979" fill-opacity="1.000000" fill-rule="nonzero"/>
			<path id="path" d="M153.44 312.88C149.61 311.79 145.2 310.55 140.8 309.27C139.81 308.98 138.95 308.43 139.31 307.15C139.69 305.75 140.72 306.03 141.7 306.31C145.95 307.51 150.21 308.7 154.45 309.94C155.36 310.21 156.12 310.74 155.87 311.92C155.64 312.88 155 313.24 153.44 312.88Z" fill="#797979" fill-opacity="1.000000" fill-rule="nonzero"/>
			<path id="path" d="M189.16 177.66C191.52 177.78 192.92 179.22 192.83 181.46C192.8 181.97 192.68 182.46 192.45 182.93C192.23 183.39 191.93 183.8 191.55 184.14C191.16 184.49 190.73 184.75 190.24 184.92C189.76 185.09 189.26 185.16 188.74 185.14C188.23 185.13 187.73 185.02 187.26 184.81C186.79 184.6 186.38 184.3 186.03 183.92C185.68 183.53 185.43 183.1 185.26 182.61C185.09 182.12 185.03 181.62 185.07 181.1C185.19 178.78 186.65 177.54 189.16 177.66Z" fill="#797979" fill-opacity="1.000000" fill-rule="nonzero"/>
			<path id="path" d="M65.45 37.18C65.95 37.2 66.42 37.31 66.88 37.52C67.33 37.73 67.72 38.02 68.06 38.39C68.39 38.76 68.64 39.18 68.81 39.65C68.97 40.12 69.04 40.61 69.01 41.1C68.94 43.25 67.53 44.56 65.34 44.52C63.02 44.46 61.62 43.07 61.64 40.83C61.65 40.34 61.75 39.86 61.94 39.4C62.14 38.95 62.41 38.55 62.77 38.2C63.13 37.86 63.54 37.6 64.01 37.42C64.47 37.25 64.95 37.16 65.45 37.18Z" fill="#797979" fill-opacity="1.000000" fill-rule="nonzero"/>
			<path id="path" d="M207.8 231.53C207.69 233.66 206.05 235.09 203.85 234.99C203.35 234.99 202.87 234.9 202.41 234.7C201.96 234.5 201.56 234.22 201.22 233.85C200.89 233.47 200.65 233.05 200.49 232.58C200.34 232.1 200.3 231.61 200.36 231.12C200.48 229.11 202.33 227.38 204.27 227.49C204.76 227.54 205.23 227.68 205.67 227.91C206.11 228.14 206.5 228.44 206.82 228.82C207.15 229.19 207.4 229.61 207.57 230.08C207.74 230.55 207.81 231.03 207.8 231.53Z" fill="#797979" fill-opacity="1.000000" fill-rule="nonzero"/>
			<path id="path" d="M293.58 171.75C293.08 171.78 292.6 171.71 292.14 171.54C291.67 171.36 291.26 171.1 290.9 170.76C290.54 170.41 290.27 170.01 290.08 169.54C289.9 169.08 289.81 168.6 289.83 168.1C289.83 165.91 291.31 164.34 293.45 164.34C293.92 164.34 294.38 164.42 294.82 164.59C295.26 164.76 295.65 165.01 296 165.33C296.34 165.65 296.62 166.02 296.82 166.45C297.02 166.88 297.14 167.33 297.17 167.8C297.26 169.73 295.45 171.72 293.58 171.75Z" fill="#797979" fill-opacity="1.000000" fill-rule="nonzero"/>
			<path id="path" d="M147.78 60.99C147.8 61.49 147.72 61.97 147.54 62.43C147.35 62.9 147.09 63.3 146.74 63.65C146.38 64 145.98 64.27 145.51 64.45C145.05 64.63 144.57 64.71 144.07 64.69C141.99 64.69 140.61 63.24 140.61 61.08C140.61 59.04 142.17 57.31 144.01 57.3C144.51 57.29 144.99 57.38 145.45 57.56C145.91 57.74 146.32 58.01 146.67 58.36C147.03 58.7 147.3 59.11 147.49 59.56C147.68 60.02 147.78 60.5 147.78 60.99Z" fill="#797979" fill-opacity="1.000000" fill-rule="nonzero"/>
			<path id="path" d="M80.05 61.11C80.53 61.11 80.98 61.2 81.42 61.38C81.86 61.56 82.24 61.83 82.57 62.17C82.9 62.51 83.15 62.9 83.32 63.34C83.49 63.79 83.56 64.25 83.54 64.72C83.51 66.79 82.02 68.18 79.89 68.15C79.43 68.16 78.99 68.07 78.57 67.9C78.15 67.73 77.77 67.48 77.46 67.15C77.13 66.82 76.89 66.44 76.73 66.01C76.57 65.59 76.49 65.15 76.51 64.69C76.5 64.21 76.58 63.75 76.75 63.31C76.92 62.87 77.18 62.48 77.51 62.14C77.85 61.8 78.23 61.54 78.67 61.36C79.12 61.18 79.58 61.1 80.05 61.11Z" fill="#797979" fill-opacity="1.000000" fill-rule="nonzero"/>
			<path id="path" d="M69.72 177.24C69.27 177.24 68.83 177.16 68.4 177C67.98 176.83 67.6 176.59 67.27 176.28C66.94 175.96 66.68 175.6 66.5 175.18C66.31 174.77 66.21 174.33 66.19 173.88C66.19 172.08 67.81 170.29 69.51 170.25C69.97 170.23 70.42 170.3 70.85 170.47C71.29 170.63 71.67 170.87 72.01 171.18C72.35 171.5 72.62 171.87 72.81 172.29C73 172.71 73.1 173.15 73.12 173.62C73.13 174.08 73.06 174.53 72.9 174.96C72.74 175.39 72.5 175.78 72.18 176.12C71.86 176.46 71.5 176.72 71.07 176.91C70.65 177.1 70.18 177.22 69.72 177.24Z" fill="#797979" fill-opacity="1.000000" fill-rule="nonzero"/>
			<path id="path" d="M287.5 221.43C289.67 221.38 291.41 222.91 291.45 224.95C291.44 225.38 291.36 225.8 291.19 226.2C291.02 226.6 290.78 226.95 290.47 227.26C290.16 227.56 289.8 227.79 289.4 227.96C289 228.12 288.58 228.2 288.15 228.2C287.67 228.25 287.21 228.2 286.75 228.05C286.3 227.89 285.9 227.66 285.54 227.33C285.19 227.01 284.92 226.63 284.73 226.19C284.54 225.75 284.46 225.29 284.46 224.81C284.35 222.81 285.56 221.48 287.5 221.43Z" fill="#797979" fill-opacity="1.000000" fill-rule="nonzero"/>
			<path id="path" d="M65.77 286.51C66.28 286.51 66.77 286.61 67.24 286.8C67.7 287 68.11 287.28 68.47 287.65C68.82 288.01 69.09 288.43 69.27 288.91C69.46 289.38 69.54 289.88 69.52 290.38C69.47 292.1 68.4 292.91 66.89 293.04C64.84 293.2 63.25 291.26 63.18 289.12C63.1 286.98 64.47 286.78 65.77 286.51Z" fill="#171717" fill-opacity="1.000000" fill-rule="nonzero"/>
			<path id="path" d="M254.24 246.12C254.21 244.14 255.48 243.32 257.21 243.24C258.93 243.15 260.02 244.08 260.11 245.85C260.2 247.46 258.55 249.19 257.1 249.17C255.39 249.14 254.25 247.93 254.24 246.12Z" fill="#797979" fill-opacity="1.000000" fill-rule="nonzero"/>
			<path id="path" d="M152.33 11.23C152.19 12.84 151.43 14.05 149.69 14.14C147.95 14.23 146.72 13.3 146.72 11.4C146.72 9.84 147.55 8.65 149.16 8.57C150.85 8.47 152.1 9.29 152.33 11.23Z" fill="#171717" fill-opacity="1.000000" fill-rule="nonzero"/>
			<path id="path" d="M17.29 55.01C15.39 54.72 14.49 53.68 14.75 51.91C14.98 50.28 15.94 49.11 17.71 49.31C18.09 49.32 18.45 49.41 18.79 49.59C19.13 49.76 19.42 49.99 19.66 50.29C19.89 50.58 20.06 50.92 20.15 51.29C20.24 51.66 20.25 52.03 20.18 52.4C20.16 52.77 20.08 53.12 19.92 53.45C19.76 53.78 19.55 54.07 19.28 54.31C19.01 54.56 18.7 54.74 18.35 54.86C18.01 54.98 17.65 55.03 17.29 55.01Z" fill="#171717" fill-opacity="1.000000" fill-rule="nonzero"/>
			<path id="path" d="M307.51 127.11C305.6 126.88 304.48 126.07 304.6 124.26C304.72 122.45 305.73 121.37 307.57 121.43C309.4 121.49 310.16 122.67 310.09 124.36C310.02 126.06 308.92 126.91 307.51 127.11Z" fill="#171717" fill-opacity="1.000000" fill-rule="nonzero"/>
			<path id="path" d="M46.6 12.08C48.23 12.37 49.22 13.4 49.23 14.93C49.23 16.64 48.12 17.7 46.37 17.62C44.89 17.55 43.94 16.63 43.95 15.06C43.96 13.33 44.95 12.37 46.6 12.08Z" fill="#171717" fill-opacity="1.000000" fill-rule="nonzero"/>
			<path id="path" d="M100.88 9.76C100.7 11.52 100.08 12.84 98.28 12.88C96.48 12.92 95.59 11.78 95.58 10.09C95.58 8.5 96.46 7.41 98.12 7.39C99.77 7.37 100.63 8.32 100.88 9.76Z" fill="#171717" fill-opacity="1.000000" fill-rule="nonzero"/>
			<path id="path" d="M301.21 273.49C301.09 275.1 300.33 276.28 298.68 276.29C297.03 276.3 296.14 275.25 296.14 273.58C296.13 271.92 297.04 270.87 298.65 270.81C300.25 270.76 301.14 271.85 301.21 273.49Z" fill="#171717" fill-opacity="1.000000" fill-rule="nonzero"/>
			<path id="path" d="M130.44 178.44C130.37 180.29 129.45 181.22 127.97 181.18C126.58 181.15 125.23 180.63 125.25 178.82C125.25 177.18 126.07 176.14 127.76 176.14C129.45 176.14 130.33 177.03 130.44 178.44Z" fill="#171717" fill-opacity="1.000000" fill-rule="nonzero"/>
			<path id="path" d="M231.37 55.76C231.24 57.12 230.6 58.26 228.85 58.27C227.29 58.27 226.31 57.33 226.32 55.86C226.32 54.24 227.3 53.01 229.03 52.98C230.59 52.95 231.29 54.07 231.37 55.76Z" fill="#171717" fill-opacity="1.000000" fill-rule="nonzero"/>
			<path id="path" d="M58.61 263.9C58.64 262.11 59.55 261.17 61.15 261.1C62.74 261.03 63.68 262.01 63.7 263.67C63.72 265.33 62.71 266.39 61.23 266.41C60.88 266.44 60.55 266.39 60.22 266.28C59.89 266.16 59.6 265.98 59.35 265.74C59.1 265.5 58.91 265.22 58.78 264.9C58.65 264.58 58.6 264.24 58.61 263.9Z" fill="#171717" fill-opacity="1.000000" fill-rule="nonzero"/>
			<path id="path" d="M252.19 123.81C250.57 123.68 249.48 122.82 249.43 121.22C249.39 119.8 250.15 118.59 251.74 118.58C253.33 118.57 254.46 119.42 254.51 121.1C254.56 122.61 253.71 123.55 252.19 123.81Z" fill="#171717" fill-opacity="1.000000" fill-rule="nonzero"/>
			<path id="path" d="M268.69 14.28C268.59 15.7 268.02 17.07 266.33 16.98C265.96 16.98 265.6 16.91 265.25 16.75C264.91 16.6 264.61 16.39 264.36 16.11C264.1 15.83 263.92 15.51 263.79 15.16C263.67 14.8 263.63 14.44 263.66 14.06C263.66 12.38 264.81 11.54 266.37 11.59C267.93 11.65 268.68 12.63 268.69 14.28Z" fill="#171717" fill-opacity="1.000000" fill-rule="nonzero"/>
			<path id="path" d="M275.33 180.66C277.05 180.77 278 181.7 278.05 183.29C278.1 184.89 277.21 185.98 275.54 185.97C274.06 185.97 273.07 185.09 273.02 183.53C272.97 181.97 273.75 180.92 275.33 180.66Z" fill="#171717" fill-opacity="1.000000" fill-rule="nonzero"/>
			<path id="path" d="M34.44 179.38C34.61 178.09 35.17 176.91 36.79 176.91C38.4 176.91 39.47 177.9 39.37 179.52C39.29 181 38.42 182.19 36.72 182.1C35.16 182.05 34.43 181.06 34.44 179.38Z" fill="#171717" fill-opacity="1.000000" fill-rule="nonzero"/>
			<path id="path" d="M10.53 178.04C10.34 179.77 9.47 180.69 7.79 180.65C6.22 180.6 5.67 179.49 5.67 178.18C5.67 176.59 6.5 175.46 8.2 175.53C9.76 175.58 10.46 176.64 10.53 178.04Z" fill="#171717" fill-opacity="1.000000" fill-rule="nonzero"/>
			<path id="path" d="M306.65 298.81C306.52 300.26 305.93 301.45 304.37 301.51C302.71 301.58 301.77 300.44 301.82 298.87C301.87 297.51 302.59 296.26 304.21 296.31C305.68 296.39 306.58 297.25 306.65 298.81Z" fill="#171717" fill-opacity="1.000000" fill-rule="nonzero"/>
			<path id="path" d="M177.83 59.63C167.38 59.49 159.11 67.24 158.98 77.31C158.85 86.88 166.44 94.33 176.45 94.45C185.87 94.56 194.46 86.43 194.6 77.26C194.76 67.58 187.33 59.77 177.83 59.63ZM176.57 91.74C168.38 91.77 161.75 85.47 161.81 77.73C161.89 69.08 168.85 62.11 177.31 62.2C178.26 62.21 179.19 62.31 180.12 62.5C181.04 62.7 181.94 62.98 182.81 63.35C183.68 63.72 184.51 64.16 185.29 64.69C186.08 65.23 186.8 65.83 187.47 66.5C188.13 67.17 188.73 67.9 189.25 68.68C189.77 69.47 190.22 70.3 190.58 71.18C190.94 72.05 191.21 72.95 191.4 73.88C191.59 74.8 191.68 75.74 191.68 76.69C191.66 84.76 184.67 91.71 176.57 91.74Z" fill="#171717" fill-opacity="1.000000" fill-rule="nonzero"/>
			<path id="path" d="M124.48 240.38C114.91 240.35 107.64 247.45 107.56 256.9C107.47 266.78 115 274.55 124.81 274.64C134.34 274.73 141.77 267.64 141.93 258.31C141.96 257.15 141.87 255.99 141.67 254.84C141.46 253.7 141.15 252.58 140.72 251.5C140.3 250.41 139.77 249.38 139.14 248.4C138.5 247.42 137.78 246.52 136.97 245.68C136.16 244.85 135.27 244.1 134.31 243.44C133.35 242.79 132.33 242.23 131.26 241.77C130.19 241.32 129.08 240.98 127.94 240.74C126.8 240.51 125.65 240.39 124.48 240.38ZM125.06 272C117.01 272 110.13 265.04 110.24 257.03C110.33 249.18 116.53 242.98 124.16 243.12C132.93 243.28 139.27 249.66 139.23 258.28C139.18 265.92 132.86 272.02 125.06 272Z" fill="#171717" fill-opacity="1.000000" fill-rule="nonzero"/>
			<path id="path" d="M301.52 185.07C293.86 185.07 287.6 191.19 287.63 198.71C287.65 206.71 293.56 212.37 301.9 212.37C309.19 212.37 315.1 206.27 315.12 198.71C315.12 197.81 315.03 196.93 314.86 196.05C314.68 195.18 314.43 194.33 314.08 193.5C313.74 192.68 313.32 191.89 312.83 191.15C312.33 190.41 311.77 189.72 311.14 189.09C310.51 188.45 309.82 187.89 309.08 187.39C308.34 186.89 307.55 186.47 306.73 186.13C305.9 185.78 305.05 185.52 304.18 185.35C303.3 185.17 302.42 185.08 301.52 185.07ZM301.52 209.71C300.79 209.72 300.07 209.66 299.35 209.52C298.64 209.38 297.94 209.18 297.26 208.9C296.59 208.62 295.94 208.28 295.34 207.87C294.73 207.47 294.17 207 293.66 206.48C293.14 205.96 292.68 205.4 292.28 204.79C291.88 204.18 291.55 203.53 291.28 202.85C291.01 202.17 290.81 201.47 290.68 200.75C290.55 200.03 290.49 199.31 290.51 198.58C290.51 197.88 290.58 197.19 290.72 196.51C290.85 195.82 291.06 195.16 291.32 194.51C291.59 193.87 291.92 193.25 292.31 192.67C292.69 192.09 293.13 191.55 293.63 191.06C294.12 190.57 294.65 190.12 295.23 189.73C295.81 189.34 296.42 189.01 297.07 188.74C297.71 188.47 298.37 188.27 299.06 188.13C299.74 187.99 300.43 187.91 301.13 187.91C307.55 187.88 312.12 192.42 312.13 198.85C312.15 199.55 312.09 200.26 311.96 200.95C311.84 201.65 311.65 202.33 311.39 202.98C311.13 203.64 310.8 204.27 310.42 204.86C310.03 205.45 309.59 206.01 309.1 206.51C308.6 207.02 308.06 207.47 307.48 207.87C306.89 208.27 306.27 208.6 305.62 208.88C304.97 209.15 304.3 209.36 303.6 209.5C302.91 209.64 302.23 209.71 301.52 209.71Z" fill="#171717" fill-opacity="1.000000" fill-rule="nonzero"/>
			<path id="path" d="M257.86 188.11C257.34 186.84 256.26 186.92 255.15 187.27C252.11 188.23 249.06 189.19 246.01 190.14C245.91 190.03 245.81 189.93 245.7 189.83C245.9 189.3 246.14 188.78 246.42 188.29C247.74 186.22 249.13 184.18 250.43 182.1C251.03 181.15 251.36 180.03 250.24 179.24C249.12 178.46 248.35 179.24 247.73 180.06C246.69 181.43 245.76 182.87 244.71 184.24C243.78 185.46 243.27 187.03 241.78 188.29C241.42 184.34 241.78 180.81 241.22 177.33C241.04 176.19 240.86 175.14 239.39 175.25C238.01 175.35 238.03 176.41 238.01 177.43C237.92 182.6 238.14 187.76 238.51 192.92C238.65 194.9 239.6 195.79 241.6 195.27C246.6 193.96 251.5 192.34 256.3 190.4C257.21 190.02 258.44 189.56 257.86 188.11Z" fill="#797979" fill-opacity="1.000000" fill-rule="nonzero"/>
			<path id="path" d="M233.9 219.33C228.56 219.33 223.75 224.16 223.72 229.61C223.72 230.31 223.78 231 223.91 231.68C224.04 232.37 224.24 233.04 224.5 233.68C224.76 234.33 225.09 234.94 225.47 235.52C225.86 236.1 226.3 236.64 226.79 237.14C227.28 237.63 227.81 238.08 228.39 238.46C228.97 238.85 229.58 239.18 230.23 239.45C230.87 239.72 231.54 239.92 232.22 240.05C232.91 240.19 233.6 240.26 234.29 240.26C240.03 240.28 244.85 235.73 244.94 230.17C245.05 224.22 240.1 219.36 233.9 219.33ZM234.39 237.36C229.78 237.36 226.64 234.2 226.68 229.61C226.73 225.28 229.86 222.08 234.09 222.07C235.15 222.07 236.17 222.27 237.15 222.68C238.13 223.08 238.99 223.66 239.74 224.41C240.48 225.17 241.06 226.03 241.46 227.01C241.86 227.99 242.06 229.02 242.05 230.08C242.02 234.3 238.79 237.36 234.39 237.36Z" fill="#171717" fill-opacity="1.000000" fill-rule="nonzero"/>
			<path id="path" d="M227.23 162.16C223.42 157.02 219.36 152.09 215.04 147.36C214.25 146.48 213.31 146.44 212.81 147.83C210.68 153.76 208.5 159.69 206.39 165.61C205.89 166.96 206.34 167.9 208.14 167.79C211.48 167.23 214.95 166.63 218.43 166.07C221.05 165.75 223.62 165.22 226.15 164.49C227.31 164.09 228.18 163.46 227.23 162.16ZM209.89 164.49L214.55 151.38C217.96 154.79 220.67 158.42 223.94 162.3C218.89 162.73 214.6 164.23 209.89 164.49Z" fill="#171717" fill-opacity="1.000000" fill-rule="nonzero"/>
			<path id="path" d="M165.15 293.12C164.39 292.2 163.67 292.79 163.03 293.32C161.98 294.23 160.99 295.22 159.96 296.17C157.6 298.34 155.18 300.43 152.18 301.71C152.11 301.63 152.04 301.56 151.96 301.49C152.05 300.3 152.71 299.34 153.2 298.3C154.32 295.93 155.44 293.55 156.45 291.13C156.75 290.42 156.97 289.43 156.03 288.93C155.01 288.4 154.29 289.03 153.79 289.86C153.16 290.91 152.57 292 152.02 293.1C150.9 295.4 149.97 297.81 148.34 300.01C147.47 298.43 146.91 296.74 146.67 294.94C146.43 293.32 146.17 291.7 145.85 290.09C145.67 289.14 145.19 288.32 144.04 288.53C143.05 288.73 142.84 289.6 142.89 290.46C143.14 295.3 144.47 299.83 146.88 304.03C147.63 305.3 148.72 306.32 150.54 305.84C156.76 304.21 160.88 299.67 165.16 295.37C165.84 294.68 165.74 293.82 165.15 293.12Z" fill="#797979" fill-opacity="1.000000" fill-rule="nonzero"/>
			<path id="path" d="M255.61 87.92C252.89 87.92 250.46 90.5 250.48 93.44C250.5 96.37 252.66 98.47 255.65 98.51C258.65 98.56 261.09 96.3 261.09 93.4C261.07 92.68 260.93 91.98 260.64 91.32C260.36 90.66 259.96 90.07 259.45 89.56C258.94 89.05 258.36 88.65 257.69 88.37C257.03 88.09 256.34 87.94 255.61 87.92ZM255.61 95.75C254.13 95.67 253.11 94.81 253.25 93.24C253.28 92.56 253.53 91.99 254.01 91.52C254.48 91.04 255.05 90.79 255.72 90.76C257.34 90.99 258.19 91.93 258.14 93.41C258.09 94.89 257.18 95.84 255.61 95.75Z" fill="#171717" fill-opacity="1.000000" fill-rule="nonzero"/>
			<path id="path" d="M167.65 42.61C166.95 42.61 166.28 42.76 165.63 43.04C164.98 43.32 164.42 43.71 163.93 44.22C163.44 44.73 163.07 45.31 162.82 45.96C162.57 46.62 162.46 47.3 162.48 48C162.48 51.2 164.68 53.31 167.96 53.3C168.66 53.29 169.33 53.15 169.98 52.88C170.62 52.6 171.19 52.22 171.69 51.73C172.19 51.23 172.57 50.66 172.85 50.02C173.12 49.37 173.26 48.7 173.27 48C173.25 45.15 170.59 42.59 167.65 42.61ZM168.01 50.54C166.37 50.59 165.35 49.6 165.32 48.02C165.32 46.6 166.04 45.46 167.68 45.47C169.32 45.48 170.25 46.32 170.4 47.94C170.31 49.5 169.55 50.5 168.01 50.54Z" fill="#171717" fill-opacity="1.000000" fill-rule="nonzero"/>
			<path id="path" d="M165.62 266.03C164.92 266.03 164.24 266.18 163.59 266.45C162.94 266.73 162.37 267.12 161.88 267.62C161.39 268.13 161.02 268.71 160.76 269.37C160.5 270.03 160.39 270.71 160.4 271.41C160.4 274.64 162.51 276.61 165.95 276.58C166.63 276.6 167.29 276.48 167.93 276.23C168.56 275.98 169.12 275.61 169.6 275.12C170.08 274.64 170.45 274.07 170.7 273.44C170.95 272.8 171.06 272.14 171.03 271.46C171.06 270.73 170.93 270.03 170.66 269.36C170.4 268.69 170.01 268.09 169.5 267.58C168.98 267.07 168.39 266.68 167.72 266.41C167.05 266.14 166.35 266.01 165.62 266.03ZM165.94 273.94C164.41 273.76 163.25 272.98 163.24 271.37C163.24 269.89 164.23 268.95 165.71 268.86C167.27 268.77 168.12 269.85 168.23 271.27C168.34 272.7 167.46 273.68 165.94 273.94Z" fill="#171717" fill-opacity="1.000000" fill-rule="nonzero"/>
			<path id="path" d="M101.51 224.03C100.83 224.04 100.17 224.18 99.54 224.44C98.91 224.71 98.35 225.09 97.87 225.57C97.39 226.05 97.01 226.61 96.74 227.24C96.48 227.87 96.33 228.52 96.32 229.21C96.31 229.89 96.42 230.55 96.66 231.18C96.91 231.82 97.26 232.39 97.73 232.88C98.2 233.38 98.74 233.77 99.36 234.06C99.98 234.34 100.63 234.5 101.31 234.53C102 234.54 102.67 234.42 103.32 234.17C103.97 233.92 104.54 233.55 105.04 233.07C105.54 232.58 105.93 232.02 106.21 231.39C106.49 230.75 106.63 230.08 106.65 229.39C106.66 228.69 106.54 228.02 106.29 227.37C106.03 226.73 105.66 226.15 105.18 225.65C104.7 225.15 104.14 224.76 103.5 224.49C102.87 224.21 102.2 224.04 101.51 224.03ZM101.35 231.44C100 231.36 99.27 230.52 99.31 229.17C99.35 227.96 99.98 227.19 101.14 227.07C102.63 227.16 103.46 227.9 103.42 229.23C103.39 230.46 102.83 231.53 101.35 231.44Z" fill="#171717" fill-opacity="1.000000" fill-rule="nonzero"/>
			<path id="path" d="M228.12 291.68C227.42 291.66 226.73 291.77 226.07 292.02C225.41 292.27 224.83 292.64 224.31 293.13C223.8 293.61 223.41 294.18 223.13 294.83C222.84 295.48 222.7 296.16 222.69 296.86C222.63 299.75 225.25 302.32 228.22 302.32C230.95 302.32 233.24 299.93 233.28 297.02C233.33 293.92 231.25 291.73 228.12 291.68ZM228.23 299.48C226.68 299.48 225.57 298.6 225.6 296.86C225.58 296.53 225.63 296.2 225.75 295.89C225.87 295.58 226.06 295.3 226.3 295.07C226.54 294.84 226.83 294.68 227.14 294.57C227.46 294.46 227.79 294.43 228.12 294.47C229.48 294.56 230.53 295.46 230.52 297.26C230.39 298.49 229.64 299.49 228.23 299.48Z" fill="#171717" fill-opacity="1.000000" fill-rule="nonzero"/>
			<path id="path" d="M79.1 22.72C78.41 22.73 77.76 22.87 77.12 23.13C76.49 23.39 75.93 23.76 75.44 24.23C74.95 24.7 74.55 25.25 74.27 25.87C73.98 26.49 73.82 27.14 73.78 27.83C73.66 30.87 75.83 33.12 78.95 33.16C79.63 33.19 80.3 33.08 80.94 32.84C81.58 32.6 82.15 32.24 82.65 31.77C83.15 31.3 83.54 30.75 83.81 30.12C84.09 29.5 84.24 28.84 84.25 28.15C84.28 27.45 84.17 26.76 83.93 26.1C83.68 25.44 83.31 24.85 82.83 24.34C82.34 23.83 81.78 23.43 81.13 23.15C80.48 22.87 79.8 22.72 79.1 22.72ZM79.03 30.48C77.66 30.48 76.64 29.73 76.56 28.29C76.48 26.86 77.33 25.8 78.87 25.71C80.42 25.62 81.25 26.55 81.52 28C81.42 29.58 80.51 30.45 79.03 30.48Z" fill="#171717" fill-opacity="1.000000" fill-rule="nonzero"/>
			<path id="path" d="M11.42 231.36C10.78 231.36 10.16 231.48 9.57 231.73C8.97 231.98 8.45 232.34 8 232.8C7.55 233.26 7.21 233.79 6.98 234.39C6.75 234.99 6.64 235.61 6.66 236.25C6.65 236.89 6.76 237.52 7 238.11C7.24 238.71 7.58 239.24 8.03 239.7C8.48 240.16 9 240.52 9.59 240.77C10.18 241.02 10.8 241.15 11.45 241.16C12.09 241.18 12.71 241.07 13.31 240.84C13.91 240.6 14.44 240.26 14.9 239.82C15.37 239.37 15.72 238.85 15.98 238.26C16.23 237.67 16.35 237.05 16.36 236.4C16.37 235.74 16.25 235.1 16.01 234.48C15.76 233.87 15.41 233.32 14.95 232.85C14.48 232.37 13.94 232.01 13.33 231.75C12.72 231.49 12.08 231.36 11.42 231.36ZM11.63 238.33C11.36 238.35 11.09 238.32 10.83 238.24C10.58 238.15 10.35 238.01 10.15 237.82C9.95 237.64 9.81 237.42 9.7 237.16C9.61 236.91 9.56 236.65 9.58 236.37C9.56 235.82 9.73 235.33 10.08 234.89C10.43 234.46 10.87 234.19 11.42 234.1C12.56 234.34 13.4 234.84 13.44 236.16C13.48 237.47 12.84 238.26 11.63 238.33Z" fill="#171717" fill-opacity="1.000000" fill-rule="nonzero"/>
			<path id="path" d="M314.17 228.44C313.57 228.41 312.98 228.5 312.41 228.71C311.85 228.92 311.34 229.24 310.91 229.66C310.48 230.08 310.15 230.58 309.92 231.14C309.69 231.7 309.59 232.28 309.61 232.89C309.61 235.46 311.8 237.79 314.2 237.78C316.45 237.78 318.61 235.44 318.62 233.01C318.65 232.41 318.56 231.83 318.34 231.26C318.13 230.69 317.81 230.19 317.39 229.76C316.97 229.33 316.48 229 315.92 228.77C315.36 228.54 314.78 228.43 314.17 228.44ZM314.14 234.98C313.11 234.76 312.29 234.25 312.28 233.08C312.26 231.91 312.93 231.11 314.01 231.08C315.32 231.02 315.87 232.1 315.83 233.22C315.78 234.1 315.33 234.97 314.14 234.98Z" fill="#171717" fill-opacity="1.000000" fill-rule="nonzero"/>
			<path id="path" d="M177.14 84.09C175.55 83.96 173.82 83.85 172.6 82.35C172.13 81.88 172.05 81.34 172.34 80.75C172.7 80.16 173.45 80.28 173.89 80.56C176.26 82.01 178.55 81.88 180.83 80.43C181.1 80.21 181.41 80.13 181.75 80.18C182.09 80.24 182.35 80.41 182.53 80.71C183.03 81.4 182.53 81.96 182.04 82.41C180.7 83.65 179.04 84.01 177.14 84.09Z" fill="#171717" fill-opacity="1.000000" fill-rule="nonzero"/>
			<path id="path" d="M171.52 71.38C172.95 71.49 173.68 72.14 173.61 73.24C173.62 73.47 173.58 73.7 173.49 73.91C173.4 74.12 173.27 74.3 173.09 74.45C172.91 74.6 172.71 74.7 172.49 74.76C172.26 74.81 172.04 74.82 171.81 74.76C170.82 74.64 170.13 74.14 170.16 73.05C170.19 71.95 170.69 71.38 171.52 71.38Z" fill="#171717" fill-opacity="1.000000" fill-rule="nonzero"/>
			<path id="path" d="M182.4 71.23C182.65 71.24 182.89 71.29 183.11 71.4C183.34 71.5 183.53 71.65 183.7 71.84C183.86 72.02 183.98 72.24 184.06 72.48C184.13 72.71 184.15 72.96 184.13 73.2C184.14 73.43 184.11 73.65 184.03 73.86C183.95 74.08 183.82 74.26 183.66 74.42C183.49 74.58 183.3 74.69 183.08 74.77C182.87 74.84 182.65 74.86 182.42 74.84C181.95 74.85 181.54 74.69 181.2 74.36C180.86 74.03 180.69 73.63 180.69 73.15C180.62 71.94 181.39 71.45 182.4 71.23Z" fill="#171717" fill-opacity="1.000000" fill-rule="nonzero"/>
			<path id="path" d="M263.22 284.37C254.4 289.97 251.74 301 257.14 309.49C262.28 317.56 272.72 319.62 281.15 314.25C289.1 309.17 291.82 297.67 286.91 289.92C281.73 281.74 271.23 279.28 263.22 284.37ZM279.77 311.93C272.95 316.44 263.97 314.81 259.75 308.3C255.08 301.02 257.07 291.38 264.2 286.81C265 286.3 265.84 285.87 266.72 285.53C267.6 285.18 268.5 284.93 269.43 284.76C270.36 284.59 271.3 284.51 272.25 284.52C273.19 284.54 274.13 284.64 275.05 284.84C275.98 285.04 276.87 285.32 277.74 285.69C278.61 286.07 279.44 286.52 280.22 287.05C281 287.58 281.72 288.18 282.39 288.86C283.05 289.53 283.64 290.26 284.17 291.05C288.57 297.8 286.53 307.46 279.77 311.93Z" fill="#171717" fill-opacity="1.000000" fill-rule="nonzero"/>
			<path id="path" d="M276.05 305.21C274.65 305.97 273.14 306.83 271.3 306.24C270.64 306.1 270.28 305.71 270.2 305.04C270.2 304.36 270.87 304.06 271.39 304.06C274.16 303.97 276.02 302.61 277.13 300.15C277.23 299.81 277.44 299.58 277.75 299.43C278.07 299.29 278.39 299.3 278.7 299.45C279.48 299.76 279.38 300.49 279.2 301.15C278.78 302.89 277.58 304.1 276.05 305.21Z" fill="#171717" fill-opacity="1.000000" fill-rule="nonzero"/>
			<path id="path" d="M264.38 297.65C265.63 296.97 266.6 297.1 267.15 298.07C267.28 298.26 267.37 298.47 267.41 298.69C267.45 298.92 267.44 299.15 267.37 299.37C267.31 299.59 267.19 299.78 267.04 299.95C266.88 300.12 266.69 300.25 266.48 300.33C265.57 300.77 264.72 300.73 264.15 299.8C263.58 298.87 263.68 298.12 264.38 297.65Z" fill="#171717" fill-opacity="1.000000" fill-rule="nonzero"/>
			<path id="path" d="M273.39 291.57C273.6 291.43 273.83 291.35 274.08 291.32C274.33 291.28 274.57 291.3 274.81 291.37C275.05 291.43 275.27 291.55 275.46 291.7C275.65 291.86 275.81 292.05 275.92 292.27C276.06 292.45 276.15 292.66 276.2 292.88C276.25 293.1 276.25 293.32 276.19 293.55C276.14 293.77 276.05 293.97 275.91 294.15C275.76 294.33 275.59 294.47 275.39 294.57C275 294.84 274.57 294.93 274.1 294.84C273.64 294.75 273.27 294.51 273.01 294.11C272.3 293.14 272.68 292.3 273.39 291.57Z" fill="#171717" fill-opacity="1.000000" fill-rule="nonzero"/>
			<path id="path" d="M123.7 265.38C121.09 265.35 118.5 263.32 118.36 261.17C118.31 260.44 118.21 259.53 119.1 259.28C119.85 259.07 120.18 259.85 120.53 260.38C120.98 261.06 121.26 261.91 121.85 262.43C123.31 263.7 124.66 263.24 125.95 261.93C126.6 261.27 127.55 260.24 128.42 261.17C129.41 262.22 128.23 263.07 127.48 263.81C126.44 264.87 125.18 265.39 123.7 265.38Z" fill="#171717" fill-opacity="1.000000" fill-rule="nonzero"/>
			<path id="path" d="M121.48 255C120.42 254.8 119.51 254.42 119.56 253.19C119.54 252.71 119.7 252.3 120.02 251.95C120.34 251.6 120.74 251.41 121.22 251.38C121.47 251.36 121.71 251.38 121.95 251.45C122.19 251.53 122.41 251.64 122.6 251.8C122.79 251.96 122.95 252.16 123.06 252.38C123.18 252.6 123.24 252.84 123.26 253.09C123.32 254.24 122.57 254.83 121.48 255Z" fill="#171717" fill-opacity="1.000000" fill-rule="nonzero"/>
			<path id="path" d="M132.95 255.79C132.8 256.84 132.12 257.42 130.98 257.29C130.74 257.29 130.52 257.24 130.32 257.14C130.11 257.03 129.93 256.89 129.79 256.71C129.64 256.53 129.55 256.32 129.5 256.1C129.44 255.87 129.44 255.65 129.49 255.42C129.61 254.37 130.38 253.87 131.39 253.91C132.39 253.95 132.99 254.59 132.95 255.79Z" fill="#171717" fill-opacity="1.000000" fill-rule="nonzero"/>
			<path id="path" d="M307.75 198.6C307.6 199.75 307.17 200.64 306.01 200.71C305.74 200.75 305.48 200.73 305.22 200.65C304.96 200.58 304.73 200.44 304.53 200.26C304.33 200.07 304.18 199.85 304.08 199.6C303.98 199.35 303.94 199.09 303.97 198.81C303.94 198.57 303.96 198.32 304.04 198.09C304.12 197.85 304.25 197.64 304.42 197.46C304.59 197.28 304.79 197.15 305.03 197.05C305.26 196.96 305.5 196.93 305.75 196.94C306.94 196.9 307.39 197.72 307.75 198.6Z" fill="#171717" fill-opacity="1.000000" fill-rule="nonzero"/>
			<path id="path" d="M298.98 198.94C298.99 199.18 298.94 199.41 298.85 199.63C298.76 199.85 298.63 200.04 298.45 200.2C298.27 200.37 298.07 200.49 297.85 200.56C297.62 200.64 297.39 200.66 297.15 200.64C296.9 200.67 296.66 200.64 296.42 200.56C296.18 200.48 295.97 200.35 295.78 200.18C295.6 200 295.46 199.8 295.36 199.57C295.27 199.33 295.23 199.09 295.24 198.84C295.19 197.72 295.67 196.89 296.92 196.86C298.17 196.83 298.93 197.45 298.98 198.94Z" fill="#171717" fill-opacity="1.000000" fill-rule="nonzero"/>
		</g>
	</g>
</svg>
